<svg viewBox="0 0 142 50" version="1.1" xmlns="http://www.w3.org/2000/svg">
    <g id="Artboard" stroke="none" stroke-width="1" fill="none" fill-rule="evenodd">
        <g id="Page-1" fill="#FFFFFF">
            <path d="M42.8141983,18.5506548 L47.3749747,18.5506548 C48.5942574,18.5506548 50.3330084,18.1464881 50.3330084,16.6667262 C50.3330084,15.2530357 48.5942574,14.5131548 47.3749747,14.5131548 L42.8141983,14.5131548 L42.8141983,18.5506548 Z M42.8141983,11.911369 L47.3749747,11.911369 C49.249135,11.911369 49.8590759,11.12625 49.8590759,10.228631 C49.8590759,9.51077381 49.271903,8.30005952 47.3749747,8.30005952 L42.8141983,8.30005952 L42.8141983,11.911369 Z M52.8165105,10.161369 C52.8165105,11.3726786 52.2293376,12.5393452 50.7620042,13.1893452 C52.6139958,13.7506548 53.290443,15.7018452 53.290443,16.68875 C53.290443,20.1881548 50.6487637,21.3101786 47.3749747,21.3101786 L39.8795316,21.3101786 L39.8795316,5.60779762 L47.3749747,5.60779762 C50.4911857,5.60779762 52.8165105,6.99886905 52.8165105,10.161369 Z" id="Fill-1"></path>
            <polygon id="Fill-3" points="63.7893359 5.60767857 63.7893359 18.5725595 71.9174878 18.5725595 71.9174878 21.3100595 60.8091333 21.3100595 60.8091333 5.60767857"></polygon>
            <path d="M81.1982363,13.6160714 C81.2653418,16.1958333 82.6649705,18.9541667 86.3911224,18.9541667 C90.1160759,18.9541667 91.5157046,16.1732143 91.5606414,13.5934524 C91.6073755,10.9464286 90.1160759,7.98571429 86.3911224,7.98571429 C82.6649705,7.98571429 81.1299325,10.9690476 81.1982363,13.6160714 M94.4971055,13.5488095 C94.4509705,17.6089286 91.9458987,21.6684524 86.3911224,21.6684524 C80.836346,21.6684524 78.2629705,17.6982143 78.2629705,13.5708333 C78.2629705,9.44345238 80.9262194,5.29404762 86.3911224,5.29404762 C91.8326582,5.29404762 94.5420422,9.44345238 94.4971055,13.5488095" id="Fill-5"></path>
            <path d="M104.339743,13.6160714 C104.406848,16.1958333 105.807076,18.9541667 109.532629,18.9541667 C113.257582,18.9541667 114.657211,16.1732143 114.702148,13.5934524 C114.748882,10.9464286 113.257582,7.98571429 109.532629,7.98571429 C105.807076,7.98571429 104.271439,10.9690476 104.339743,13.6160714 M117.638612,13.5488095 C117.592477,17.6089286 115.087405,21.6684524 109.532629,21.6684524 C103.977852,21.6684524 101.404477,17.6982143 101.404477,13.5708333 C101.404477,9.44345238 104.068325,5.29404762 109.532629,5.29404762 C114.974165,5.29404762 117.683549,9.44345238 117.638612,13.5488095" id="Fill-7"></path>
            <polygon id="Fill-9" points="139.019738 9.93714286 133.871788 16.7561905 133.284615 16.7561905 128.249906 9.91452381 128.249906 21.332381 125.269704 21.332381 125.269704 5.63059524 128.701071 5.63059524 133.646505 12.3817857 138.590742 5.63059524 141.99994 5.63059524 141.99994 21.332381 139.019738 21.332381"></polygon>
            <path d="M53.9006236,42.3741071 C52.2751131,43.9669643 50.1750709,44.7068452 47.8940835,44.7068452 C42.0235519,44.7068452 39.5406489,40.6919643 39.5172819,36.608631 C39.4957122,32.5044643 42.1817291,28.3318452 47.8940835,28.3318452 C50.0396616,28.3318452 52.0719992,29.1401786 53.6975097,30.7318452 L51.7101089,32.6389881 C50.6717713,31.6294643 49.2715435,31.1580357 47.8940835,31.1580357 C44.0786574,31.1580357 42.4303789,33.9848214 42.4525477,36.608631 C42.4759148,39.2116071 43.988784,41.9252976 47.8940835,41.9252976 C49.2715435,41.9252976 50.8299485,41.3651786 51.8682861,40.3324405 L53.9006236,42.3741071 Z" id="Fill-11"></path>
            <polygon id="Fill-13" points="71.7591907 44.3702976 71.7591907 38.0220833 63.9929291 38.0220833 63.9929291 44.3702976 61.0127266 44.3702976 61.0127266 28.6685119 63.9929291 28.6685119 63.9929291 35.2857738 71.7591907 35.2857738 71.7591907 28.6685119 74.7172245 28.6685119 74.7172245 44.3702976"></polygon>
            <path d="M90.0255435,31.9435119 L87.0908768,38.6280357 L92.9608093,38.6280357 L90.0255435,31.9435119 Z M94.1573241,41.3869643 L85.8937629,41.3869643 L84.5390709,44.3482738 L81.3102186,44.3482738 L88.4006321,28.6458929 L91.651054,28.6458929 L98.7408684,44.3482738 L95.4892481,44.3482738 L94.1573241,41.3869643 Z" id="Fill-15"></path>
            <polygon id="Fill-17" points="105.287907 44.3480357 108.245342 44.3480357 108.245342 28.6456548 105.287907 28.6456548"></polygon>
            <polygon id="Fill-19" points="126.850218 28.62375 129.831619 28.62375 129.831619 44.3481548 127.979627 44.3481548 127.979627 44.3701786 119.669931 33.7606548 119.669931 44.3481548 116.689728 44.3481548 116.689728 28.6457738 119.106125 28.6457738 126.850218 38.3814881"></polygon>
            <path d="M13.8772945,-0.000238095238 L13.8772945,5.60809524 C18.4907966,5.60928571 22.23013,9.31702381 22.23013,13.9009524 C22.23013,18.4694048 18.5165603,22.1664286 13.925227,22.1932143 C15.6437285,22.1990644 16.359998,23.8148512 17.8794563,24.3832543 C19.1428254,24.8558588 21.2482164,24.2023622 22.3074211,24.997381 C25.6890582,22.4592857 27.8747797,18.4336905 27.8747797,13.9009524 C27.8747797,6.22535714 21.6100034,0.000952380952 13.8772945,-0.000238095238 Z" id="Fill-20"></path>
            <path d="M13.8774143,27.8024405 C13.8929924,27.8024405 13.9085705,27.80125 13.9247477,27.80125 C13.9085705,27.8006548 13.8929924,27.8000595 13.8774143,27.8000595 L13.8774143,27.8024405 Z" id="Fill-21"></path>
            <path d="M17.8790175,25.8013044 C16.4038883,26.3327881 15.5840575,27.7953489 13.9249274,27.8013095 C18.5162608,27.8275 22.2298304,31.5245238 22.2298304,36.0929762 C22.2298304,40.6769048 18.4910962,44.3840476 13.8775941,44.3858333 L13.8775941,49.9935714 C21.6097038,49.992381 27.8750793,43.7679762 27.8750793,36.0929762 C27.8750793,31.5602381 25.6893578,27.5352381 22.3077207,24.9971429 C21.2042703,25.82509 19.2027388,25.3243724 17.8790175,25.8013044 Z" id="Fill-22"></path>
            <path d="M13.8774143,22.1918452 L13.8774143,22.1942262 C13.8935916,22.1942262 13.9091696,22.1930357 13.9253468,22.1930357 C13.9091696,22.1930357 13.8935916,22.1918452 13.8774143,22.1918452" id="Fill-23"></path>
            <path d="M13.9251072,22.1929762 C13.90893,22.1929762 13.8933519,22.1941667 13.8771747,22.1941667 L13.8771747,27.800119 C13.8933519,27.800119 13.90893,27.8007143 13.9251072,27.8013095 C17.0724743,27.79 19.9747865,26.7477381 22.3079004,24.9971429 C19.9747865,23.2465476 17.0724743,22.2042857 13.9251072,22.1929762" id="Fill-24"></path>
            <path d="M13.9973654,33.4850595 C9.38386329,33.483869 5.64512911,29.776131 5.64512911,25.1916071 C5.64512911,20.6082738 9.38386329,16.9005357 13.9973654,16.8993452 L13.9973654,11.2910119 C6.26465654,11.2922024 -0.000119831224,17.5166071 -0.000119831224,25.1916071 C-0.000119831224,32.8672024 6.26465654,39.0916071 13.9973654,39.0933929 L13.9973654,33.4850595 Z" id="Fill-25"></path>
        </g>
    </g>
</svg>