<svg viewBox="0 0 61 22" version="1.1" xmlns="http://www.w3.org/2000/svg">
    <g id="logo" stroke="none" stroke-width="1" fill="none" fill-rule="evenodd">
        <g id="Page-1">
            <path d="M18.3920148,8.1333027 L20.3512215,8.1333027 C20.8749979,8.1333027 21.6219262,7.95610087 21.6219262,7.30731776 C21.6219262,6.68750285 20.8749979,6.36311129 20.3512215,6.36311129 L18.3920148,6.36311129 L18.3920148,8.1333027 Z M18.3920148,5.22239087 L20.3512215,5.22239087 C21.1563186,5.22239087 21.4183354,4.87816523 21.4183354,4.48461538 C21.4183354,4.16987989 21.1660992,3.63905735 20.3512215,3.63905735 L18.3920148,3.63905735 L18.3920148,5.22239087 Z M22.6887827,4.45512524 C22.6887827,4.98620876 22.4365464,5.49771918 21.8062131,5.78270355 C22.6017869,6.0288027 22.8923734,6.88427777 22.8923734,7.31697383 C22.8923734,8.8512441 21.7575675,9.34318142 20.3512215,9.34318142 L17.1313481,9.34318142 L17.1313481,2.45866877 L20.3512215,2.45866877 C21.6898755,2.45866877 22.6887827,3.06856665 22.6887827,4.45512524 Z" id="Fill-1" fill="#262747"></path>
            <polygon id="Fill-3" fill="#262747" points="27.4024612 2.45861657 27.4024612 8.14290657 30.8941321 8.14290657 30.8941321 9.34312922 26.1222333 9.34312922 26.1222333 2.45861657"></polygon>
            <path d="M34.8809325,5.96979632 C34.9097595,7.10086068 35.5110084,8.31021745 37.1116793,8.31021745 C38.7118354,8.31021745 39.3130844,7.09094364 39.3323882,5.95987928 C39.3524641,4.79932478 38.7118354,3.50123661 37.1116793,3.50123661 C35.5110084,3.50123661 34.8515907,4.80924182 34.8809325,5.96979632 M40.593827,5.94030618 C40.5740084,7.72041462 39.4978861,9.50026209 37.1116793,9.50026209 C34.7254726,9.50026209 33.6200084,7.75956083 33.6200084,5.94996224 C33.6200084,4.14036365 34.7640802,2.321109 37.1116793,2.321109 C39.4492405,2.321109 40.6131308,4.14036365 40.593827,5.94030618" id="Fill-5" fill="#262747"></path>
            <path d="M44.8220021,5.96979632 C44.8508291,7.10086068 45.4523354,8.31021745 47.0527489,8.31021745 C48.6529051,8.31021745 49.254154,7.09094364 49.2734578,5.95987928 C49.2935338,4.79932478 48.6529051,3.50123661 47.0527489,3.50123661 C45.4523354,3.50123661 44.7926603,4.80924182 44.8220021,5.96979632 M50.5348966,5.94030618 C50.5150781,7.72041462 49.4389557,9.50026209 47.0527489,9.50026209 C44.6665422,9.50026209 43.5610781,7.75956083 43.5610781,5.94996224 C43.5610781,4.14036365 44.7054072,2.321109 47.0527489,2.321109 C49.3903101,2.321109 50.5542004,4.14036365 50.5348966,5.94030618" id="Fill-7" fill="#262747"></path>
            <polygon id="Fill-9" fill="#262747" points="59.7197464 4.35681607 57.5083034 7.34654226 57.2560671 7.34654226 55.0932696 4.34689903 55.0932696 9.35291577 53.8130418 9.35291577 53.8130418 2.4686641 55.2870797 2.4686641 57.411527 5.42863917 59.5354595 2.4686641 60.9999743 2.4686641 60.9999743 9.35291577 59.7197464 9.35291577"></polygon>
            <path d="M23.1544932,18.5783976 C22.4562105,19.2767659 21.5540797,19.6011575 20.574219,19.6011575 C18.0523709,19.6011575 16.9857717,17.8408831 16.9757338,16.0505966 C16.9664679,14.2511761 18.1203203,12.4217434 20.574219,12.4217434 C21.495911,12.4217434 22.3689574,12.776147 23.0672401,13.4739934 L22.2134975,14.3101563 C21.7674511,13.8675432 21.1659447,13.6608513 20.574219,13.6608513 C18.9351979,13.6608513 18.2271346,14.9002201 18.2366578,16.0505966 C18.2466958,17.191839 18.8965903,18.3816227 20.574219,18.3816227 C21.1659447,18.3816227 21.8354004,18.1360455 22.2814468,17.6832544 L23.1544932,18.5783976 Z" id="Fill-11" fill="#262747"></path>
            <polygon id="Fill-13" fill="#262747" points="30.8261312 19.4536024 30.8261312 16.6703072 27.4899203 16.6703072 27.4899203 19.4536024 26.2096924 19.4536024 26.2096924 12.5693507 27.4899203 12.5693507 27.4899203 15.4706065 30.8261312 15.4706065 30.8261312 12.5693507 32.0968359 12.5693507 32.0968359 19.4536024"></polygon>
            <path d="M38.6729447,14.0052335 L37.4122781,16.9359794 L39.9338688,16.9359794 L38.6729447,14.0052335 Z M40.4478646,18.1455972 L36.8980249,18.1455972 L36.3160797,19.4439463 L34.9290376,19.4439463 L37.9749194,12.5594336 L39.3712274,12.5594336 L42.4168519,19.4439463 L41.0200291,19.4439463 L40.4478646,18.1455972 Z" id="Fill-15" fill="#262747"></path>
            <polygon id="Fill-17" fill="#262747" points="45.2293122 19.4438419 46.4997595 19.4438419 46.4997595 12.5593293 45.2293122 12.5593293"></polygon>
            <polygon id="Fill-19" fill="#262747" points="54.4919949 12.5497254 55.7727376 12.5497254 55.7727376 19.4438941 54.9771637 19.4438941 54.9771637 19.4535502 51.4075055 14.8019371 51.4075055 19.4438941 50.1272776 19.4438941 50.1272776 12.5593815 51.1653072 12.5593815 54.4919949 16.8278837"></polygon>
            <path d="M5.961373,-0.000104389885 L5.961373,2.45879926 C7.94322954,2.45932121 9.54956287,4.08493263 9.54956287,6.09469881 C9.54956287,8.09767965 7.95429705,9.71859353 5.98196371,9.73033739 C6.72019325,9.73290231 7.02788649,10.4413238 7.68061153,10.690533 C8.22332639,10.8977406 9.12775492,10.6112232 9.5827654,10.9597892 C11.0354405,9.84699308 11.9743772,8.08202117 11.9743772,6.09469881 C11.9743772,2.72943002 9.28317046,0.00041755952 5.961373,-0.000104389885 Z" id="Fill-20" fill="#4D67EC"></path>
            <path d="M5.96142447,12.1896098 C5.96811646,12.1896098 5.97480844,12.1890992 5.98175781,12.1890992 C5.97480844,12.1888439 5.96811646,12.1885886 5.96142447,12.1885886 L5.96142447,12.1896098 Z" id="Fill-21" fill="#1300A9"></path>
            <path d="M7.68042301,11.3122594 C7.04674076,11.5452818 6.6945599,12.1865233 5.98183502,12.1891366 C7.95416835,12.2006195 9.54943418,13.8215334 9.54943418,15.8245142 C9.54943418,17.8342804 7.94335823,19.4596309 5.96150169,19.4604138 L5.96150169,21.9190565 C9.28304177,21.9185345 11.9745059,19.1895221 11.9745059,15.8245142 C11.9745059,13.8371919 11.0355692,12.072481 9.58289409,10.9596848 C9.10887669,11.3226879 8.24906384,11.1031545 7.68042301,11.3122594 Z" id="Fill-22" fill="#4D67EC"></path>
            <path d="M5.96142447,9.72973715 L5.96142447,9.73075835 C5.96837384,9.73075835 5.97506582,9.73024775 5.98201519,9.73024775 C5.97506582,9.73024775 5.96837384,9.72973715 5.96142447,9.72973715" id="Fill-23" fill="#1300A9"></path>
            <path d="M5.98191224,9.730233 C5.97496287,9.730233 5.96827089,9.73075495 5.96132152,9.73075495 L5.96132152,12.1886147 C5.96827089,12.1886147 5.97496287,12.1888757 5.98191224,12.1891366 C7.33395021,12.1841781 8.58071814,11.7272114 9.58297131,10.9596848 C8.58071814,10.1921582 7.33395021,9.73519152 5.98191224,9.730233" id="Fill-24" fill="#33459C"></path>
            <path d="M6.01295274,14.6811058 C4.0310962,14.6805838 2.42502025,13.0549724 2.42502025,11.0449453 C2.42502025,9.03544005 4.0310962,7.40982863 6.01295274,7.40930668 L6.01295274,4.95040303 C2.69115527,4.95092498 -5.14767932e-05,7.67993744 -5.14767932e-05,11.0449453 C-5.14767932e-05,14.410214 2.69115527,17.1392265 6.01295274,17.1400094 L6.01295274,14.6811058 Z" id="Fill-25" fill="#4D67EC"></path>
        </g>
    </g>
</svg>